<svg version="1.1" id="Layer_1"
  xmlns="http://www.w3.org/2000/svg"
  xmlns:xlink="http://www.w3.org/1999/xlink" x="0px" y="0px" viewBox="0 0 21 21" style="enable-background:new 0 0 21 21;" xml:space="preserve">
  <style type="text/css">
	.st0{fill:#FFFFFF;}
  </style>
  <title>new-query</title>
  <path class="st0" d="M3.1,3.1C-1,7.2-1,13.8,3.1,17.9c4.1,4.1,10.7,4.1,14.8,0c4.1-4.1,4.1-10.7,0-14.8C13.8-1,7.2-1,3.1,3.1z
	 M16.7,16.7c-3.4,3.4-9,3.4-12.4,0c-3.4-3.4-3.4-9,0-12.4c3.4-3.4,9-3.4,12.4,0C20.1,7.7,20.1,13.2,16.7,16.7z"/>
  <path class="st0" d="M10.5,5.5L10.5,5.5c-0.5,0-0.9,0.4-0.9,0.8c0,0,0,0,0,0v3.3H6.3c-0.5,0-0.9,0.4-0.9,0.9c0,0.5,0.4,0.9,0.9,0.9
	l0,0h3.3v3.3c0,0.5,0.4,0.9,0.8,0.9c0,0,0,0,0,0c0.2,0,0.4-0.1,0.6-0.3c0.2-0.2,0.2-0.4,0.2-0.6v-3.3h3.3c0.5,0,0.9-0.4,0.9-0.9
	c0-0.5-0.4-0.9-0.8-0.9c0,0,0,0,0,0h-3.3V6.3C11.3,5.9,11,5.5,10.5,5.5C10.5,5.5,10.5,5.5,10.5,5.5z"/>
</svg>
