<svg version="1.1" id="Layer_1"
  xmlns="http://www.w3.org/2000/svg"
  xmlns:xlink="http://www.w3.org/1999/xlink" x="0px" y="0px" viewBox="0 0 22.6 19.4" style="enable-background:new 0 0 22.6 19.4;" xml:space="preserve">
  <style type="text/css">
	.st0{fill:#FFFFFF;}
  </style>
  <title>query-list</title>
  <path class="st0" d="M8.5,2.6h13c0.7-0.1,1.1-0.6,1.1-1.3c-0.1-0.6-0.5-1-1.1-1.1h-13C7.8,0.3,7.4,0.8,7.4,1.5
	C7.5,2.1,7.9,2.5,8.5,2.6z"/>
  <path class="st0" d="M21.5,8.5h-13C7.9,8.6,7.4,9.1,7.4,9.8c0.1,0.6,0.5,1,1.1,1.1h13c0.7-0.1,1.1-0.6,1.1-1.3
	C22.5,9,22.1,8.6,21.5,8.5z"/>
  <path class="st0" d="M21.5,16.8h-13c-0.7,0.1-1.1,0.6-1.1,1.3c0.1,0.6,0.5,1,1.1,1.1h13c0.7-0.1,1.1-0.6,1.1-1.3
	C22.5,17.3,22.1,16.8,21.5,16.8z"/>
  <circle class="st0" cx="1.4" cy="1.4" r="1.4"/>
  <circle class="st0" cx="1.4" cy="9.7" r="1.4"/>
  <circle class="st0" cx="1.4" cy="18" r="1.4"/>
</svg>
