<svg version="1.1" id="Layer_1"
  xmlns="http://www.w3.org/2000/svg"
  xmlns:xlink="http://www.w3.org/1999/xlink" x="0px" y="0px" viewBox="0 0 26.3 21.4" style="enable-background:new 0 0 26.3 21.4;" xml:space="preserve">
  <style type="text/css">
	.st0{fill:#FFFFFF;}
  </style>
  <title>video-collection</title>
  <path class="st0" d="M24.6,0h-23C0.7,0,0,0.7,0,1.6c0,0,0,0,0,0v18.1c0,0.9,0.7,1.6,1.6,1.6c0,0,0,0,0,0h23c0.9,0,1.6-0.7,1.6-1.6
	c0,0,0,0,0,0V1.6C26.3,0.7,25.5,0,24.6,0L24.6,0z M24.6,19.7h-23V1.6h23V19.7z"/>
  <path class="st0" d="M9.4,14.6c0.3,0.2,0.6,0.2,0.8,0l6.6-3.3c0.4-0.2,0.6-0.7,0.4-1.1c-0.1-0.2-0.2-0.3-0.4-0.4l-6.6-3.2
	C9.8,6.4,9.3,6.6,9.1,7c0,0,0,0,0,0C9.1,7.1,9,7.3,9,7.4V14C9,14.3,9.2,14.5,9.4,14.6z M10.7,8.7l3.9,2l-4,1.9L10.7,8.7z"/>
</svg>
